<svg enable-background="new 0 0 344.32 47.43" viewBox="0 0 344.32 47.43" xmlns="http://www.w3.org/2000/svg"><path d="m3.26 46.43c-.4 0-.9-.1-1.3-.3-1-.7-1.3-2.1-.7-3.1l24.6-40.2c.2-.3.4-.6.8-.8 1.1-.6 2.4-.3 3.1.7l7.8 12.8-17.7 30.9z" fill="#4c79ad"/><path d="m16.06 18.73 9.8-16c.2-.3.4-.6.8-.8 1.1-.6 2.4-.3 3.1.7l7.8 12.8-6.7 11.7c-.6-.3-1.2-.7-1.6-1.2-4.3-3.6-8.8-5.9-13.2-7.2z" fill="#ccc"/><path d="m24.96 2.23c1.2-2.1 4.3-2.1 5.5 0l8.1 13.3-.3.5-6.7 11.7-.5.8-10.6 18.8h-17.1c-2.6.1-4.2-2.7-2.9-4.9l14.8-24.2zm4.5 25.4-.1-.1c-4.8-3.4-6.9-5.7-12.9-7.6l-14.4 23.6c-.5.9.1 2 1.2 1.9h.1 16.1zm-2.8-24.4-9.1 15c5.9 1.9 8.1 4.3 12.9 7.7l5.9-10.4-7.5-12.3c-.5-.8-1.8-.8-2.2 0z" fill="#0e0f0f"/><path clip-rule="evenodd" d="m37.46 15.53-17.6 30.9h40.8c1.2 0 2.2-1 2.2-2.2 0-.5-.2-.9-.4-1.3-6.8-9.6-13.6-19.3-20.3-28.9-.7-1-2.1-1.3-3.1-.5-.2.2-.4.3-.5.5z" fill="#4989bd" fill-rule="evenodd"/><path clip-rule="evenodd" d="m37.46 15.53-5.1 8.9c3.5.6 7 2 10.4 5 2.5 2.2 8.9 2.8 12.1 2.4l-12.6-18c-.7-1-2.1-1.3-3.1-.5-.2.2-.4.3-.5.5z" fill="#e6e6e6" fill-rule="evenodd"/><path d="m32.86 25.53-11.3 19.9h39.2c1.9 0 1.2-1.8.5-2.8l-6.9-9.8c-4.2.2-9.5-.1-12.3-2.6-2.6-2.4-5.7-4-9.2-4.7zm7.8-11.5c-.3-.1-.7 0-1 .2-.1 0-.1.1-.2.1s-.1.1-.1.2l-1.1 1.5-4.4 7.7c3.6.8 6.8 2.5 9.5 5 2 1.8 7 2.3 9.7 2.3zm-21.6 31.9 11.8-20.7.7-1.2 5.1-8.9v-.1l1.1-1.6c.1-.1.2-.3.4-.4.1-.1.3-.2.4-.4.7-.5 1.6-.7 2.4-.5.8.1 1.6.6 2.1 1.3l12.6 18 .9 1.3 6.8 9.6c1.5 2.1-.1 5.1-2.6 5.1h-42.5z" fill="#0e0f0f"/><text font-family="'Montserrat-ExtraBold'" font-size="50.3908" transform="translate(66.0598 42.8315)">NORDEND</text></svg>